<?xml version="1.0" standalone="no"?>
<!DOCTYPE svg PUBLIC "-//W3C//DTD SVG 1.1//EN"
"http://www.w3.org/Graphics/SVG/1.1/DTD/svg11.dtd">

<svg width="316" height="526" view_box="0 0 316 526"
xmlns="http://www.w3.org/2000/svg"
xmlns:link="http://www.w3.org/1999/xlink">\n\n<desc>Généré par Mocodo 2.3.7 le Thu, 17 Oct 2019 02:40:29</desc>

<rect id="frame" x="0" y="0" width="316" height="526" fill="#ffffff" stroke="none" stroke-width="0"/>

<!-- Association made -->
<line x1="151" y1="246" x2="53" y2="246" stroke="#878787" stroke-width="2"/>
<text x="84" y="263.0" fill="#b2182b" font-family="Verdana" font-size="12">0,1</text>
<line x1="53" y1="60" x2="53" y2="246" stroke="#878787" stroke-width="2"/>
<text x="58.0" y="128" fill="#b2182b" font-family="Verdana" font-size="12">0,N</text>
<g id="association-made">
	<path d="M 64 221 a 14 14 90 0 1 14 14 V 246 h -50 V 235 a 14 14 90 0 1 14 -14" fill="#bababa" stroke="#bababa" stroke-width="0"/>
	<path d="M 78 246.0 v 11 a 14 14 90 0 1 -14 14 H 42 a 14 14 90 0 1 -14 -14 V 246.0 H 50" fill="#e0e0e0" stroke="#e0e0e0" stroke-width="0"/>
	<rect x="28" y="221" width="50" height="50" fill="none" rx="14" stroke="#878787" stroke-width="2"/>
	<line x1="28" y1="246" x2="78" y2="246" stroke="#878787" stroke-width="1"/>
	<text x="35" y="238.7" fill="#000000" font-family="Verdana" font-size="12">made</text>
</g>

<!-- Association is a -->
<line x1="151" y1="246" x2="151" y2="60" stroke="#878787" stroke-width="2"/>
<text x="156.0" y="128" fill="#b2182b" font-family="Verdana" font-size="12">0,1</text>
<line x1="263" y1="60" x2="151" y2="60" stroke="#878787" stroke-width="2"/>
<text x="192" y="77.0" fill="#b2182b" font-family="Verdana" font-size="12">0,N</text>
<g id="association-is a">
	<path d="M 155 35 a 14 14 90 0 1 14 14 V 60 h -36 V 49 a 14 14 90 0 1 14 -14" fill="#bababa" stroke="#bababa" stroke-width="0"/>
	<path d="M 169 60.0 v 11 a 14 14 90 0 1 -14 14 H 147 a 14 14 90 0 1 -14 -14 V 60.0 H 36" fill="#e0e0e0" stroke="#e0e0e0" stroke-width="0"/>
	<rect x="133" y="35" width="36" height="50" fill="none" rx="14" stroke="#878787" stroke-width="2"/>
	<line x1="133" y1="60" x2="169" y2="60" stroke="#878787" stroke-width="1"/>
	<text x="140" y="52.7" fill="#000000" font-family="Verdana" font-size="12">is a</text>
</g>

<!-- Association belongs to -->
<line x1="151" y1="246" x2="263" y2="246" stroke="#878787" stroke-width="2"/>
<text x="197" y="263.0" fill="#b2182b" font-family="Verdana" font-size="12">0,1</text>
<line x1="263" y1="449" x2="263" y2="246" stroke="#878787" stroke-width="2"/>
<text x="268.0" y="373" fill="#b2182b" font-family="Verdana" font-size="12">0,N</text>
<g id="association-belongs to">
	<path d="M 288 221 a 14 14 90 0 1 14 14 V 246 h -78 V 235 a 14 14 90 0 1 14 -14" fill="#bababa" stroke="#bababa" stroke-width="0"/>
	<path d="M 302 246.0 v 11 a 14 14 90 0 1 -14 14 H 238 a 14 14 90 0 1 -14 -14 V 246.0 H 78" fill="#e0e0e0" stroke="#e0e0e0" stroke-width="0"/>
	<rect x="224" y="221" width="78" height="50" fill="none" rx="14" stroke="#878787" stroke-width="2"/>
	<line x1="224" y1="246" x2="302" y2="246" stroke="#878787" stroke-width="1"/>
	<text x="231" y="238.7" fill="#000000" font-family="Verdana" font-size="12">belongs to</text>
</g>

<!-- Entity CATEGORY -->
<g id="entity-CATEGORY">
	<g id="frame-CATEGORY">
		<rect x="220" y="381" width="86" height="25" fill="#f4a582" stroke="#f4a582" stroke-width="0"/>
		<rect x="220" y="406.0" width="86" height="111" fill="#fddbc7" stroke="#fddbc7" stroke-width="0"/>
		<rect x="220" y="381" width="86" height="136" fill="none" stroke="#d6604d" stroke-width="2"/>
		<line x1="220" y1="406" x2="306" y2="406" stroke="#d6604d" stroke-width="1"/>
	</g>
	<text x="229" y="398.7" fill="#000000" font-family="Verdana" font-size="12">CATEGORY</text>
	<text x="225" y="423.7" fill="#000000" font-family="Verdana" font-size="12">name</text>
	<line x1="225" y1="426" x2="260" y2="426" stroke="#000000" stroke-width="1"/>
	<text x="225" y="440.7" fill="#000000" font-family="Verdana" font-size="12">subtitle</text>
	<text x="225" y="457.8" fill="#000000" font-family="Verdana" font-size="12">picture</text>
	<text x="225" y="474.8" fill="#000000" font-family="Verdana" font-size="12">home_order</text>
	<text x="225" y="491.8" fill="#000000" font-family="Verdana" font-size="12">created_at</text>
	<text x="225" y="508.8" fill="#000000" font-family="Verdana" font-size="12">updated_at</text>
</g>

<!-- Entity BRAND -->
<g id="entity-BRAND">
	<g id="frame-BRAND">
		<rect x="9" y="9" width="88" height="25" fill="#f4a582" stroke="#f4a582" stroke-width="0"/>
		<rect x="9" y="34.0" width="88" height="77" fill="#fddbc7" stroke="#fddbc7" stroke-width="0"/>
		<rect x="9" y="9" width="88" height="102" fill="none" stroke="#d6604d" stroke-width="2"/>
		<line x1="9" y1="34" x2="97" y2="34" stroke="#d6604d" stroke-width="1"/>
	</g>
	<text x="31" y="26.7" fill="#000000" font-family="Verdana" font-size="12">BRAND</text>
	<text x="14" y="51.7" fill="#000000" font-family="Verdana" font-size="12">name</text>
	<line x1="14" y1="54" x2="49" y2="54" stroke="#000000" stroke-width="1"/>
	<text x="14" y="68.8" fill="#000000" font-family="Verdana" font-size="12">footer_order</text>
	<text x="14" y="85.8" fill="#000000" font-family="Verdana" font-size="12">created_at</text>
	<text x="14" y="102.8" fill="#000000" font-family="Verdana" font-size="12">updated_at</text>
</g>

<!-- Entity TYPE -->
<g id="entity-TYPE">
	<g id="frame-TYPE">
		<rect x="219" y="9" width="88" height="25" fill="#f4a582" stroke="#f4a582" stroke-width="0"/>
		<rect x="219" y="34.0" width="88" height="77" fill="#fddbc7" stroke="#fddbc7" stroke-width="0"/>
		<rect x="219" y="9" width="88" height="102" fill="none" stroke="#d6604d" stroke-width="2"/>
		<line x1="219" y1="34" x2="307" y2="34" stroke="#d6604d" stroke-width="1"/>
	</g>
	<text x="247" y="26.7" fill="#000000" font-family="Verdana" font-size="12">TYPE</text>
	<text x="224" y="51.7" fill="#000000" font-family="Verdana" font-size="12">name</text>
	<line x1="224" y1="54" x2="259" y2="54" stroke="#000000" stroke-width="1"/>
	<text x="224" y="68.8" fill="#000000" font-family="Verdana" font-size="12">footer_order</text>
	<text x="224" y="85.8" fill="#000000" font-family="Verdana" font-size="12">created_at</text>
	<text x="224" y="102.8" fill="#000000" font-family="Verdana" font-size="12">update_at</text>
</g>

<!-- Entity PRODUCT -->
<g id="entity-PRODUCT">
	<g id="frame-PRODUCT">
		<rect x="110" y="136" width="82" height="25" fill="#f4a582" stroke="#f4a582" stroke-width="0"/>
		<rect x="110" y="161.0" width="82" height="195" fill="#fddbc7" stroke="#fddbc7" stroke-width="0"/>
		<rect x="110" y="136" width="82" height="220" fill="none" stroke="#d6604d" stroke-width="2"/>
		<line x1="110" y1="161" x2="192" y2="161" stroke="#d6604d" stroke-width="1"/>
	</g>
	<text x="121" y="153.7" fill="#000000" font-family="Verdana" font-size="12">PRODUCT</text>
	<text x="115" y="178.7" fill="#000000" font-family="Verdana" font-size="12">name</text>
	<line x1="115" y1="181" x2="150" y2="181" stroke="#000000" stroke-width="1"/>
	<text x="115" y="195.7" fill="#000000" font-family="Verdana" font-size="12">description</text>
	<text x="115" y="212.7" fill="#000000" font-family="Verdana" font-size="12">picture</text>
	<text x="115" y="229.7" fill="#000000" font-family="Verdana" font-size="12">price</text>
	<text x="115" y="246.8" fill="#000000" font-family="Verdana" font-size="12">rate</text>
	<text x="115" y="263.8" fill="#000000" font-family="Verdana" font-size="12">status</text>
	<text x="115" y="280.8" fill="#000000" font-family="Verdana" font-size="12">created_at</text>
	<text x="115" y="297.8" fill="#000000" font-family="Verdana" font-size="12">updated_at</text>
	<text x="115" y="314.8" fill="#000000" font-family="Verdana" font-size="12">brand_id</text>
	<text x="115" y="331.8" fill="#000000" font-family="Verdana" font-size="12">category_id</text>
	<text x="115" y="348.8" fill="#000000" font-family="Verdana" font-size="12">type_id</text>
</g>
</svg>